<svg width="256" height="256" viewBox="0 0 256 256" fill="none" xmlns="http://www.w3.org/2000/svg">
<path d="M0.000613405 186.21L29.7198 167.997C35.4531 178.291 40.6687 187.001 53.1791 187.001C65.171 187.001 72.7315 182.251 72.7315 163.773V38.1133H109.226V164.295C109.226 202.574 87.0696 219.997 54.7436 219.997C25.549 219.997 8.60223 204.685 0 186.207" fill="white"/>
<path d="M129.049 182.25L158.764 164.826C166.587 177.763 176.753 187.266 194.74 187.266C209.861 187.266 219.504 179.61 219.504 169.05C219.504 156.379 209.598 151.89 192.914 144.501L183.793 140.538C157.462 129.189 139.996 114.934 139.996 84.8387C139.996 57.1199 160.85 36 193.437 36C216.638 36 233.322 44.1844 245.312 65.5678L216.897 84.0459C210.64 72.6954 203.864 68.2083 193.438 68.2083C182.749 68.2083 175.971 75.0719 175.971 84.0459C175.971 95.1337 182.749 99.6226 198.389 106.487L207.512 110.446C238.534 123.911 256 137.636 256 168.522C256 201.787 230.193 220 195.522 220C161.634 220 139.736 203.634 129.049 182.25" fill="white"/>
</svg>
