<svg width="55" height="55" viewBox="0 0 55 55" fill="none" xmlns="http://www.w3.org/2000/svg">
<g clip-path="url(#clip0_111_848)">
<path d="M54.6242 26.8258L52.3153 25.3965C52.2958 25.1721 52.2739 24.9479 52.2496 24.724L54.2339 22.8731C54.3331 22.781 54.407 22.6649 54.4486 22.536C54.4901 22.4071 54.498 22.2697 54.4713 22.1369C54.4452 22.004 54.3855 21.88 54.2979 21.7768C54.2102 21.6736 54.0976 21.5946 53.9707 21.5473L51.434 20.5988C51.3703 20.3798 51.3041 20.1615 51.2353 19.944L52.8176 17.7463C52.8969 17.6365 52.9467 17.5082 52.9624 17.3736C52.9781 17.2391 52.9592 17.1027 52.9074 16.9776C52.8556 16.8524 52.7726 16.7426 52.6664 16.6585C52.5602 16.5744 52.4342 16.5189 52.3005 16.4972L49.6257 16.0622C49.5217 15.8594 49.4134 15.6595 49.3043 15.4615L50.4281 12.9944C50.4847 12.8713 50.5087 12.7357 50.4979 12.6007C50.4871 12.4656 50.4417 12.3356 50.3662 12.2231C50.2914 12.1103 50.1887 12.0185 50.0682 11.9568C49.9476 11.895 49.8132 11.8652 49.6779 11.8703L46.9631 11.9649C46.8229 11.7893 46.6799 11.6159 46.5343 11.4447L47.1582 8.80044C47.1894 8.66856 47.1863 8.53089 47.1492 8.40054C47.1122 8.27019 47.0423 8.1515 46.9464 8.05579C46.8507 7.95998 46.732 7.89023 46.6018 7.85315C46.4715 7.81608 46.334 7.81291 46.2021 7.84396L43.5585 8.46722C43.3869 8.32172 43.2131 8.17876 43.0373 8.03839L43.1322 5.32384C43.1373 5.18851 43.1076 5.05414 43.0459 4.93358C42.9842 4.81302 42.8926 4.71031 42.7799 4.63526C42.6673 4.55991 42.5374 4.51462 42.4024 4.50371C42.2674 4.49281 42.1318 4.51665 42.0086 4.57296L39.5422 5.69745C39.3433 5.58765 39.143 5.48022 38.9415 5.37519L38.5054 2.69995C38.4835 2.56637 38.428 2.44057 38.3439 2.33448C38.2598 2.22839 38.1501 2.14552 38.025 2.09373C37.9 2.04194 37.7637 2.02294 37.6293 2.03853C37.4948 2.05412 37.3666 2.10379 37.2567 2.18282L35.0576 3.76515C34.8412 3.6964 34.6236 3.63001 34.404 3.56706L33.4555 1.02997C33.4083 0.902869 33.3293 0.789992 33.226 0.702126C33.1228 0.61426 32.9987 0.554341 32.8657 0.528095C32.733 0.501981 32.5958 0.510093 32.4671 0.551666C32.3384 0.593238 32.2224 0.666902 32.1301 0.765713L30.2792 2.75151C30.0554 2.72643 29.8312 2.70451 29.6068 2.68577L28.1774 0.376201C28.1062 0.261115 28.0067 0.166133 27.8885 0.100262C27.7703 0.0343918 27.6372 -0.000183105 27.5018 -0.000183105C27.3665 -0.000183105 27.2334 0.0343918 27.1151 0.100262C26.9969 0.166133 26.8975 0.261115 26.8262 0.376201L25.3969 2.68577C25.1722 2.70449 24.9478 2.7264 24.7238 2.75151L22.8725 0.765713C22.7802 0.666536 22.6641 0.592618 22.5352 0.550994C22.4063 0.509369 22.2689 0.501422 22.136 0.527909C22.0032 0.554396 21.8793 0.614436 21.7762 0.702316C21.6732 0.790195 21.5943 0.902991 21.5471 1.02997L20.5988 3.56706C20.379 3.63001 20.1616 3.69683 19.9446 3.76515L17.7459 2.18282C17.636 2.10342 17.5077 2.05353 17.373 2.03792C17.2384 2.02231 17.102 2.0415 16.9769 2.09366C16.852 2.14557 16.7423 2.22848 16.6583 2.33457C16.5743 2.44065 16.5187 2.56641 16.4968 2.69995L16.0606 5.37519C15.8587 5.47982 15.6591 5.58745 15.4599 5.69745L12.9933 4.57275C12.8702 4.5164 12.7347 4.49256 12.5997 4.5035C12.4648 4.51445 12.3349 4.55981 12.2225 4.63526C12.1096 4.71026 12.018 4.81295 11.9562 4.93351C11.8944 5.05407 11.8646 5.18847 11.8697 5.32384L11.9642 8.03839C11.7886 8.17902 11.6148 8.32197 11.443 8.46722L8.79935 7.84417C8.66748 7.81327 8.5299 7.81648 8.39961 7.85351C8.26933 7.89054 8.15062 7.96016 8.05471 8.05579C7.95876 8.1515 7.88891 8.27019 7.85183 8.40054C7.81475 8.53089 7.81166 8.66856 7.84287 8.80044L8.4657 11.4447C8.32111 11.616 8.17824 11.7894 8.03795 11.9649L5.32318 11.8703C5.18799 11.8661 5.05392 11.8962 4.93353 11.9578C4.81314 12.0195 4.71037 12.1107 4.63482 12.2229C4.55949 12.3355 4.5142 12.4654 4.50325 12.6004C4.49231 12.7354 4.51608 12.871 4.5723 12.9942L5.6968 15.4615C5.58744 15.6595 5.47937 15.8594 5.37453 16.0622L2.69994 16.4972C2.56629 16.519 2.44041 16.5746 2.33426 16.6587C2.22811 16.7428 2.14521 16.8526 2.09341 16.9777C2.0416 17.1028 2.02263 17.2391 2.03827 17.3736C2.05392 17.5081 2.10367 17.6364 2.18281 17.7463L3.76514 19.9442C3.69639 20.1612 3.62957 20.379 3.56641 20.5988L1.02953 21.5473C0.902839 21.5949 0.790387 21.6741 0.702817 21.7773C0.615248 21.8805 0.555458 22.0043 0.529107 22.137C0.502755 22.2698 0.510713 22.407 0.552228 22.5359C0.593743 22.6647 0.667441 22.7808 0.766348 22.8731L2.75086 24.7238C2.72615 24.9472 2.70424 25.1722 2.68533 25.3965L0.375977 26.8258C0.260909 26.8971 0.165964 26.9966 0.10016 27.1148C0.0343561 27.2331 -0.000122133 27.3662 3.25072e-07 27.5015C3.25072e-07 27.7774 0.142442 28.0328 0.376192 28.1768L2.68533 29.6061C2.70424 29.8311 2.72615 30.0556 2.75086 30.2788L0.766133 32.1301C0.66705 32.2224 0.593196 32.3384 0.551583 32.4673C0.509969 32.5961 0.501978 32.7334 0.528368 32.8662C0.554759 32.999 0.614654 33.1229 0.702367 33.226C0.79008 33.3291 0.9027 33.4081 1.02953 33.4555L3.56641 34.404C3.62957 34.6236 3.69639 34.8417 3.76514 35.0587L2.18281 37.2567C2.10353 37.3666 2.05367 37.4949 2.03798 37.6295C2.0223 37.7641 2.04131 37.9004 2.0932 38.0256C2.1451 38.1507 2.22816 38.2605 2.33447 38.3445C2.44078 38.4285 2.56682 38.4839 2.70059 38.5054L5.37475 38.9405C5.47937 39.1433 5.58658 39.3431 5.69701 39.542L4.5723 42.0084C4.51598 42.1316 4.49215 42.2672 4.5031 42.4022C4.51404 42.5372 4.55939 42.6672 4.63482 42.7797C4.70982 42.8925 4.81249 42.9841 4.93301 43.0458C5.05353 43.1075 5.18787 43.1373 5.32318 43.1323L8.03666 43.0373C8.17824 43.2137 8.32068 43.3867 8.4657 43.5585L7.84287 46.2033C7.81169 46.3349 7.81478 46.4723 7.85187 46.6025C7.88896 46.7326 7.9588 46.851 8.05471 46.9464C8.15035 47.0424 8.26905 47.1123 8.39944 47.1493C8.52983 47.1862 8.66754 47.1891 8.79935 47.1576L11.443 46.535C11.6149 46.6811 11.7889 46.8229 11.9644 46.9625L11.8699 49.6779C11.865 49.8132 11.8948 49.9475 11.9565 50.0681C12.0182 50.1886 12.1097 50.2913 12.2223 50.3665C12.3349 50.4417 12.4648 50.4868 12.5998 50.4976C12.7347 50.5084 12.8702 50.4845 12.9933 50.4282L15.4599 49.3043C15.6585 49.4147 15.8588 49.522 16.0606 49.6264L16.4968 52.3001C16.5183 52.4338 16.5738 52.5598 16.6578 52.6661C16.7419 52.7723 16.8517 52.8553 16.9769 52.907C17.1021 52.9589 17.2384 52.9779 17.3729 52.9624C17.5075 52.9469 17.6358 52.8973 17.7459 52.8183L19.9435 51.2349C20.1605 51.3036 20.3786 51.3709 20.5981 51.4341L21.5467 53.9701C21.5939 54.097 21.6729 54.2097 21.7761 54.2974C21.8793 54.3851 22.0033 54.4448 22.1362 54.4709C22.2689 54.4977 22.4063 54.4899 22.5352 54.4482C22.664 54.4066 22.78 54.3326 22.872 54.2333L24.7234 52.2485C24.9468 52.2743 25.1715 52.2958 25.3965 52.3158L26.8258 54.6249C26.8971 54.7398 26.9966 54.8347 27.1147 54.9004C27.2329 54.9662 27.3658 55.0008 27.5011 55.0009C27.6364 55.0008 27.7694 54.9663 27.8877 54.9005C28.0059 54.8347 28.1054 54.7399 28.1768 54.6249L29.6061 52.3158C29.831 52.2958 30.0556 52.2743 30.2788 52.2485L32.1297 54.2333C32.2217 54.3325 32.3377 54.4065 32.4665 54.4481C32.5953 54.4897 32.7326 54.4976 32.8653 54.4709C32.9981 54.4447 33.1221 54.3849 33.2253 54.2973C33.3285 54.2096 33.4075 54.0969 33.4548 53.9701L34.4034 51.4341C34.6229 51.3709 34.8412 51.3036 35.0582 51.2349L37.2563 52.8183C37.3662 52.8973 37.4946 52.947 37.6291 52.9625C37.7636 52.9781 37.8999 52.959 38.025 52.9071C38.15 52.8551 38.2598 52.7721 38.3438 52.6659C38.4278 52.5597 38.4833 52.4338 38.5049 52.3001L38.9411 49.6264C39.1428 49.5217 39.3424 49.413 39.5416 49.3041L42.0082 50.4282C42.1313 50.4847 42.2668 50.5087 42.4019 50.498C42.5369 50.4873 42.6669 50.4422 42.7796 50.367C42.8923 50.2918 42.9838 50.1889 43.0454 50.0683C43.1071 49.9477 43.1368 49.8133 43.1318 49.6779L43.0373 46.9627C43.2131 46.8229 43.3866 46.6803 43.5578 46.535L46.2017 47.1576C46.4703 47.2208 46.7517 47.1426 46.9457 46.9464C47.0416 46.851 47.1115 46.7326 47.1486 46.6025C47.1856 46.4723 47.1887 46.3349 47.1576 46.2033L46.5349 43.5585C46.68 43.3867 46.8228 43.2137 46.9625 43.0373L49.6772 43.1323C49.8125 43.1374 49.9469 43.1077 50.0674 43.046C50.188 42.9843 50.2906 42.8927 50.3656 42.7799C50.4412 42.6674 50.4865 42.5373 50.4974 42.4022C50.5083 42.2671 50.4843 42.1314 50.4277 42.0082L49.3036 39.5422C49.4134 39.3431 49.5213 39.1433 49.6252 38.9407L52.3001 38.5054C52.4338 38.4839 52.5598 38.4285 52.6659 38.3444C52.7721 38.2603 52.8549 38.1503 52.9063 38.025C52.9582 37.9 52.9772 37.7637 52.9616 37.6293C52.946 37.4948 52.8963 37.3666 52.8172 37.2567L51.2349 35.0589C51.3032 34.8417 51.37 34.6236 51.4336 34.404L53.97 33.4555C54.097 33.4083 54.2097 33.3292 54.2974 33.226C54.3851 33.1227 54.4448 32.9987 54.4708 32.8657C54.4976 32.733 54.4898 32.5957 54.4482 32.4669C54.4065 32.3381 54.3325 32.2221 54.2332 32.1301L52.2491 30.2788C52.2732 30.0554 52.2953 29.8306 52.3147 29.6064L54.6238 28.1768C54.7389 28.1057 54.8339 28.0063 54.8998 27.8881C54.9656 27.7699 55.0001 27.6368 55 27.5015C55 27.2263 54.8582 26.9704 54.6242 26.8258ZM39.1701 45.9805C38.2884 45.7903 37.7276 44.9213 37.9169 44.0368C38.1055 43.1533 38.9739 42.5911 39.8554 42.7812C40.7372 42.9701 41.2988 43.8406 41.1097 44.7234C40.9206 45.6064 40.0514 46.1693 39.1701 45.9805ZM38.3855 40.674C38.1942 40.633 37.9966 40.6301 37.8042 40.6655C37.6117 40.7009 37.4281 40.7738 37.2639 40.8802C37.0997 40.9866 36.958 41.1244 36.8471 41.2855C36.7361 41.4467 36.6581 41.6282 36.6173 41.8196L35.7975 45.6453C33.2677 46.7934 30.4586 47.4313 27.5 47.4313C24.4737 47.4313 21.6034 46.7618 19.0287 45.5647L18.2093 41.7392C18.037 40.9342 17.2455 40.4214 16.4416 40.5941L13.0642 41.3194C12.4365 40.6734 11.8531 39.9858 11.318 39.2612H27.7514C27.9372 39.2612 28.0612 39.2275 28.0612 39.0582V33.2452C28.0612 33.0761 27.9372 33.0423 27.7512 33.0423H22.9453V29.3578H28.1435C28.6178 29.3578 30.6805 29.4931 31.3399 32.1297C31.5466 32.9405 31.9999 35.5779 32.3101 36.4223C32.6191 37.3693 33.877 39.261 35.2176 39.261H43.4064C43.4994 39.261 43.5987 39.2505 43.7033 39.2316C43.1351 40.0032 42.5127 40.7334 41.8408 41.4165L38.3857 40.674H38.3855ZM15.6572 45.9005C14.7752 46.0909 13.907 45.5286 13.7173 44.6452C13.5287 43.7603 14.0895 42.8916 14.9712 42.7015C15.8531 42.5129 16.7217 43.0751 16.9108 43.9584C17.0994 44.8414 16.5382 45.7115 15.657 45.9005H15.6572ZM9.42305 20.622C9.78892 21.4474 9.4166 22.4149 8.59225 22.7801C7.76789 23.1464 6.80303 22.7737 6.43736 21.9476C6.07148 21.1215 6.44359 20.1558 7.26816 19.7895C7.46428 19.7025 7.67563 19.655 7.89011 19.6498C8.10459 19.6446 8.318 19.6816 8.51814 19.7589C8.71827 19.8362 8.90121 19.9522 9.05648 20.1003C9.21175 20.2483 9.33632 20.4256 9.42305 20.6218V20.622ZM7.50707 25.1638L11.0254 23.6004C11.3865 23.4397 11.6691 23.1422 11.8111 22.7733C11.9531 22.4044 11.9428 21.9942 11.7825 21.6329L11.058 19.9945H13.9077V32.8395H8.15826C7.64861 31.0454 7.39077 29.1892 7.39213 27.3241C7.39213 26.594 7.43144 25.8726 7.50707 25.1636V25.1638ZM22.9462 23.9162V20.13H29.7322C30.0828 20.13 32.2072 20.5352 32.2072 22.1238C32.2072 23.4427 30.5778 23.9156 29.2379 23.9156H22.9462V23.9162ZM47.6085 27.3241C47.6085 27.8264 47.59 28.3235 47.5533 28.8168H45.4901C45.2837 28.8168 45.2005 28.9526 45.2005 29.1547V30.1022C45.2005 32.3323 43.9431 32.8174 42.8411 32.9409C41.7918 33.0591 40.6282 32.5016 40.4849 31.8594C39.8658 28.3777 38.8343 27.6341 37.2053 26.3491C39.227 25.0654 41.3303 23.1716 41.3303 20.6364C41.3303 17.8993 39.4539 16.1752 38.1747 15.3298C36.3803 14.1468 34.3935 13.9096 33.8574 13.9096H12.5209C15.4142 10.6805 19.3355 8.3931 23.7705 7.56079L26.2855 10.1991C26.4204 10.3407 26.5819 10.4543 26.7608 10.5334C26.9397 10.6125 27.1325 10.6556 27.328 10.6601C27.5236 10.6646 27.7181 10.6305 27.9005 10.5597C28.0828 10.4889 28.2494 10.3829 28.3907 10.2476L31.2048 7.55607C37.1011 8.65392 42.0935 12.3243 44.9704 17.36L43.0439 21.7113C42.7114 22.4643 43.0508 23.3449 43.8017 23.6786L47.5108 25.326C47.5748 25.9845 47.6085 26.6497 47.6085 27.3241ZM26.2866 5.31632C26.9382 4.6922 27.9718 4.71691 28.5957 5.36939C29.2183 6.0238 29.1947 7.05849 28.5416 7.68218C27.8899 8.30652 26.8563 8.28224 26.2324 7.62847C25.9335 7.31444 25.7713 6.89466 25.7814 6.4612C25.7916 6.02775 25.9732 5.61601 26.2866 5.31632ZM45.404 20.7013C45.4907 20.5051 45.6152 20.3279 45.7704 20.1798C45.9257 20.0318 46.1086 19.9158 46.3087 19.8386C46.5088 19.7613 46.7222 19.7242 46.9367 19.7295C47.1511 19.7348 47.3624 19.7824 47.5585 19.8694C48.383 20.2351 48.7551 21.2021 48.3893 22.0275C48.3026 22.2238 48.1781 22.4011 48.0228 22.5492C47.8676 22.6974 47.6847 22.8134 47.4845 22.8907C47.2843 22.9681 47.0709 23.0052 46.8564 22.9999C46.6419 22.9946 46.4305 22.9471 46.2344 22.86C45.4109 22.4942 45.0388 21.528 45.404 20.7013Z" fill="white"/>
</g>
<defs>
<clipPath id="clip0_111_848">
<rect width="55" height="55" fill="white"/>
</clipPath>
</defs>
</svg>
